<svg xmlns="http://www.w3.org/2000/svg" width="114" height="170" fill="none" viewBox="0 0 114 170">
    <path fill="#231F20" d="M4.739 160.549l-2.63-68.97c-.214-5.913 1.806-11.69 5.659-16.18 3.853-4.49 9.255-7.365 15.132-8.052l16.422-1.867c.876-.111 1.71-.445 2.421-.968.712-.523 1.278-1.22 1.645-2.023l5.093-11.339h-5.543c-.374 0-.746-.074-1.092-.217-.346-.143-.66-.354-.926-.619-.265-.265-.475-.58-.619-.926-.143-.346-.217-.717-.217-1.092V36.84h-2.092c-.182 0-.362-.043-.524-.126-.163-.083-.303-.203-.409-.352-.106-.148-.175-.32-.202-.5-.026-.18-.009-.364.05-.537l6.09-17.595h27.017v44.906c.003.703.263 1.38.731 1.904.468.524 1.113.859 1.81.94l16.452 1.877c5.834.637 11.214 3.45 15.065 7.878 3.852 4.428 5.893 10.145 5.716 16.011l-1.76 69.293h-1.143l1.759-69.293c.168-5.578-1.773-11.015-5.436-15.226-3.664-4.21-8.78-6.885-14.328-7.49l-16.47-1.916c-.975-.117-1.872-.586-2.524-1.319-.651-.733-1.013-1.679-1.015-2.66V18.885H43.808l-5.864 16.803h2.091c.16-.014.32.006.47.058.151.052.29.135.407.243.117.109.21.24.272.388.063.146.095.305.093.464v11.456c.002.453.183.886.504 1.207.32.32.753.501 1.206.504h7.341l-5.865 12.951c-.446.983-1.137 1.835-2.006 2.475-.87.64-1.888 1.047-2.96 1.18l-16.47 1.868c-5.581.656-10.712 3.386-14.374 7.648-3.663 4.262-5.59 9.745-5.4 15.362l2.63 69.019-1.144.039z"/>
    <path fill="#231F20" d="M58.871 50.583H49.4l-5.933 13.186L59.223 51.6c.095-.072.164-.172.198-.286.034-.114.032-.236-.007-.349-.039-.112-.112-.21-.21-.278-.097-.068-.214-.104-.333-.103z"/>
    <path fill="#231F20" d="M42 65.617l7.027-15.64h9.843c.24-.002.475.072.67.21.197.14.344.336.422.563.078.227.082.473.013.703-.07.23-.21.432-.401.577L41.999 65.617zm7.77-14.466l-4.887 10.752L58.87 51.15h-9.1zM41.62 20.126h20.526c.517-.001 1.028.115 1.493.34.466.225.874.553 1.195.958.32.406.546.879.657 1.383.112.505.108 1.029-.012 1.532l-2.267 9.667c-.432 1.848-.343 3.78.255 5.581.599 1.801 1.684 3.401 3.136 4.624l2.845 2.404 6.774-23.83c.443-1.26.612-2.598.496-3.928-.117-1.33-.516-2.618-1.171-3.781-.656-1.162-1.552-2.172-2.63-2.96-1.076-.787-2.31-1.336-3.616-1.609L52.283 6.705c-1.471-.35-3.02-.145-4.35.577-1.33.721-2.345 1.908-2.853 3.333l-3.46 9.51z"/>
    <path fill="#231F20" d="M42.07 20.125h5.004c.174 0 .345-.036.503-.109.158-.072.298-.178.41-.31.114-.132.196-.288.242-.455.047-.167.056-.343.028-.514l-1.115-6.667c-.035-.212-.127-.41-.267-.574-.14-.164-.32-.286-.525-.354l-1.73-.596c-.687-.235-1.414-.33-2.138-.281-.724.049-1.432.242-2.08.568-.65.326-1.227.778-1.7 1.33-.471.55-.829 1.19-1.051 1.882-.227.697-.285 1.438-.17 2.162.114.724.398 1.411.83 2.004.43.593.995 1.076 1.649 1.409.653.332 1.376.505 2.11.505zM21.15 98.85h-1.143v61.679h1.144V98.851zM92.75 98.85h-1.143v61.679h1.144V98.851z"/>
    <path fill="#FF5156" d="M21.033 98.793l3.235 22.325 3.1 22.355 1.514 11.182c.127.9.244 1.955.372 2.728.149.754.482 1.461.97 2.056.487.595 1.114 1.06 1.825 1.355l2.59.977c14.059 5.018 29.42 5.018 43.479 0l2.59-.977c.708-.299 1.332-.766 1.82-1.36.486-.594.822-1.299.975-2.051.127-.802.245-1.828.372-2.728l1.515-11.182 3.099-22.355 3.235-22.325c.017-.12.081-.23.178-.303.097-.073.22-.105.34-.088.117.02.223.082.296.177.073.094.106.213.095.331l-2.58 22.414-2.708 22.403-1.388 11.192c-.127.978-.215 1.809-.381 2.864-.207 1.102-.686 2.135-1.392 3.005-.707.871-1.62 1.551-2.655 1.98l-2.669 1.037c-7.209 2.614-14.813 3.973-22.481 4.017-7.67-.043-15.273-1.402-22.482-4.017l-2.679-1.037c-1.029-.426-1.938-1.097-2.649-1.955-.703-.871-1.182-1.901-1.397-3-.157-1.056-.245-1.897-.372-2.864l-1.388-11.192-2.707-22.433-2.581-22.414c-.007-.116.03-.23.105-.32.074-.09.18-.148.295-.162.115-.015.232.014.326.082.095.068.16.169.183.283z"/>
    <path fill="#939598" d="M56.38 141.508c-.378-.002-.738-.154-1.004-.421-.265-.267-.414-.629-.414-1.006 0-.075.03-.147.083-.2.053-.053.125-.083.2-.083.076 0 .148.03.2.083.054.053.084.125.084.2 0 .228.09.447.252.609.161.161.38.251.608.251.228 0 .447-.09.608-.251.162-.162.252-.381.252-.609 0-.075.03-.147.083-.2.053-.053.126-.083.2-.083.076 0 .148.03.201.083.053.053.083.125.083.2 0 .189-.037.375-.11.549-.072.173-.178.331-.311.464-.134.133-.292.237-.467.309-.174.071-.36.107-.549.105zM41.033 111.392c-4.533.002-9.037-.721-13.343-2.14-.036-.011-.07-.03-.099-.054-.029-.024-.053-.054-.07-.088-.017-.034-.028-.07-.03-.108-.003-.038.002-.076.014-.112.01-.036.029-.07.053-.098.025-.029.055-.053.089-.069.034-.017.071-.026.109-.027.038-.002.075.004.11.018 7.507 2.463 15.554 2.767 23.225.88.037-.009.075-.011.112-.005.037.006.073.019.105.038.032.02.06.045.083.076.022.03.038.064.047.101.01.037.01.075.005.112-.006.037-.019.073-.038.105-.02.032-.045.06-.076.083-.03.022-.065.038-.101.047-3.337.82-6.76 1.237-10.195 1.241zM72.076 111.392c-3.44-.004-6.865-.421-10.205-1.241-.037-.008-.071-.023-.101-.045-.03-.022-.056-.05-.076-.082-.019-.032-.031-.067-.036-.104-.005-.038-.002-.075.008-.111.018-.073.064-.136.128-.176.064-.04.14-.054.214-.039 7.671 1.887 15.718 1.583 23.225-.88.035-.014.072-.02.11-.018.038.001.075.01.109.027.034.016.064.04.089.069.024.028.042.062.053.098.013.035.018.073.016.11-.002.037-.012.074-.028.107-.017.034-.04.064-.068.089-.028.025-.06.044-.096.056-4.305 1.417-8.81 2.14-13.342 2.14zM51.853 151.88c-2.012-.001-3.992-.498-5.767-1.447-.04-.013-.078-.035-.11-.065-.03-.029-.055-.065-.07-.105-.017-.039-.024-.082-.021-.125.002-.043.014-.085.034-.122.02-.038.05-.071.084-.097.034-.025.074-.043.115-.052.042-.008.086-.008.128.002.041.01.08.029.114.056 1.919 1.024 4.085 1.495 6.256 1.359.038-.006.077-.003.114.007.037.011.072.029.102.054.029.025.053.056.07.091.016.035.026.073.027.112.002.076-.025.15-.076.207-.05.056-.122.091-.198.096-.264.019-.538.029-.802.029zM51.335 141.666c-2.232.002-4.429-.553-6.393-1.613-.033-.017-.063-.04-.087-.068-.024-.029-.043-.062-.054-.097-.01-.036-.014-.074-.01-.111.004-.037.016-.073.034-.105.037-.067.099-.116.172-.138.073-.022.151-.015.22.02 2.138 1.148 4.557 1.67 6.978 1.506.039-.006.078-.003.116.008.037.011.072.031.1.057.03.026.052.058.067.094.015.036.022.075.02.114.003.038-.002.075-.014.11-.012.036-.03.069-.055.097-.024.028-.054.051-.088.068-.033.016-.07.026-.107.028-.293.02-.596.03-.899.03zM51.853 132.429c-2.01.002-3.992-.492-5.767-1.437-.04-.014-.078-.036-.11-.065-.03-.029-.055-.065-.07-.105-.017-.04-.024-.083-.021-.126.002-.042.014-.084.034-.122.02-.038.05-.07.084-.096.034-.026.074-.043.115-.052.042-.009.086-.008.128.002.041.01.08.029.114.056 1.918 1.027 4.085 1.494 6.256 1.348.039-.005.079-.002.117.009.037.011.072.03.102.056.03.026.054.058.07.095.016.036.024.075.024.114.002.076-.025.151-.076.207-.05.057-.122.091-.198.096l-.802.02zM60.904 151.879h-.811c-.037-.003-.074-.012-.107-.029-.034-.017-.064-.04-.088-.068-.025-.028-.043-.061-.055-.096-.012-.036-.017-.073-.014-.11-.002-.039.004-.078.02-.113.014-.036.038-.068.067-.093.029-.026.064-.044.101-.054.038-.01.077-.012.115-.004 2.174.138 4.344-.333 6.265-1.359.067-.034.144-.042.215-.02.072.022.132.072.167.137.018.034.03.07.034.108.005.038.001.076-.01.113-.01.036-.029.07-.053.1-.025.029-.055.053-.089.07-1.773.939-3.75 1.426-5.757 1.418zM61.413 141.665h-.89c-.038-.001-.075-.01-.11-.026-.034-.016-.065-.039-.09-.068-.026-.028-.046-.061-.058-.097-.013-.036-.018-.074-.015-.112.001-.038.01-.076.026-.11.016-.035.039-.066.067-.092.029-.025.062-.045.098-.057.036-.013.074-.018.112-.015 2.425.164 4.847-.357 6.989-1.505.067-.035.146-.043.22-.021.072.022.134.072.17.138.035.066.043.143.02.215-.021.071-.07.131-.136.166-1.97 1.05-4.17 1.595-6.403 1.584zM60.904 132.429h-.811c-.037-.003-.074-.013-.107-.029-.034-.017-.064-.04-.088-.068-.025-.028-.043-.061-.055-.096-.012-.036-.017-.073-.014-.11.002-.074.033-.144.086-.195.053-.051.124-.079.197-.079 2.174.147 4.345-.321 6.266-1.349.066-.035.143-.042.215-.02.071.022.13.071.166.137.019.033.03.07.035.108.004.038 0 .076-.01.113-.011.036-.03.07-.054.099-.024.03-.054.054-.088.071-1.768.936-3.738 1.423-5.738 1.418zM47.621 77.24h-.088l-10.166-3.441c-.035-.013-.068-.032-.096-.056-.028-.025-.05-.055-.067-.089-.016-.033-.026-.07-.028-.107-.002-.037.003-.075.015-.11s.031-.068.056-.096c.025-.028.055-.051.089-.067.033-.017.07-.026.107-.028.037-.003.075.003.11.015l10.127 3.43c.035.013.068.032.096.057.028.024.05.054.067.088.016.034.026.07.028.108.002.037-.003.074-.015.11-.017.05-.048.094-.09.127-.042.033-.092.053-.145.058zM65.127 77.24c-.058 0-.115-.017-.163-.05-.047-.034-.083-.081-.101-.136-.014-.036-.02-.073-.019-.111.002-.038.01-.075.027-.109s.04-.064.07-.088c.028-.025.061-.043.098-.054l10.126-3.431c.035-.012.073-.018.11-.015.037.002.074.011.108.028.033.016.063.039.088.067.025.028.044.06.056.096.012.035.017.073.015.11-.002.037-.011.074-.028.107-.016.034-.039.064-.067.089-.028.025-.06.044-.096.056l-10.127 3.43-.097.01z"/>
</svg>
