<svg xmlns="http://www.w3.org/2000/svg" width="114" height="170" fill="none" viewBox="0 0 114 170">
    <path fill="#231F20" d="M105.623 156.084h-1.144v-68.1c-.003-5.29-1.941-10.397-5.448-14.357-3.507-3.961-8.342-6.503-13.593-7.147l-13.293-1.613c-.952-.117-1.828-.58-2.46-1.302-.633-.72-.978-1.649-.971-2.608V18.525h-24.33L38.726 34.88h2.033c.147-.007.293.015.43.065.138.05.265.127.373.226.108.099.195.218.257.351.062.133.097.276.104.423v11.133c0 .441.175.864.486 1.175.312.312.734.487 1.175.487h7.136L45.01 61.27c-.432.957-1.103 1.787-1.95 2.41-.845.623-1.836 1.018-2.878 1.148l-12.63 1.662c-5.212.689-9.998 3.247-13.468 7.198-3.47 3.951-5.387 9.028-5.396 14.287v68.109H7.544v-68.11c.01-5.534 2.031-10.876 5.687-15.032 3.656-4.155 8.697-6.841 14.185-7.557l12.629-1.622c.847-.115 1.652-.445 2.336-.958.684-.513 1.226-1.193 1.574-1.975l4.955-11.006h-5.376c-.736 0-1.442-.292-1.963-.813-.52-.52-.813-1.227-.813-1.963V35.944h-2.033c-.175-.001-.348-.043-.504-.123-.156-.08-.291-.195-.395-.337-.1-.14-.165-.301-.19-.47-.026-.17-.01-.344.043-.507l5.914-17.067h26.235v43.596c0 .68.25 1.336.703 1.844.452.508 1.075.833 1.75.912l13.314 1.623c5.522.67 10.608 3.34 14.298 7.503 3.689 4.163 5.728 9.533 5.73 15.096v68.07z"/>
    <path fill="#231F20" d="M59.007 49.297H49.81l-5.767 12.805L59.35 50.294c.092-.071.16-.17.192-.28.034-.112.031-.231-.007-.34-.037-.11-.108-.206-.203-.273-.094-.068-.208-.104-.324-.104z"/>
    <path fill="#231F20" d="M42.625 63.9l6.842-15.16h9.56c.223.008.438.084.617.217.18.133.315.317.389.527.073.211.082.44.025.655-.057.215-.178.409-.347.555L42.625 63.9zm7.536-14.046L45.46 60.293l13.547-10.459-8.846.02zM42.254 19.729h19.92c.5.007.99.127 1.437.348.446.222.838.541 1.145.934.307.393.523.849.631 1.336.108.487.106.991-.006 1.477l-2.2 9.384c-.418 1.795-.332 3.671.249 5.42.581 1.75 1.635 3.304 3.045 4.492l2.816 2.316L75.878 22.3c.43-1.223.593-2.524.48-3.815-.114-1.291-.502-2.544-1.14-3.673-.636-1.129-1.506-2.109-2.553-2.874-1.046-.766-2.243-1.299-3.512-1.564L52.605 6.7c-1.422-.341-2.92-.149-4.211.541-1.29.69-2.282 1.83-2.788 3.203l-3.352 9.286z"/>
    <path fill="#231F20" d="M42.684 19.728h4.887c.168-.001.334-.038.487-.109.152-.071.287-.174.396-.302.109-.128.188-.279.233-.44.045-.163.055-.332.028-.498L47.6 11.908c-.033-.206-.121-.4-.256-.56-.134-.16-.31-.28-.507-.35l-1.681-.556c-.668-.228-1.374-.32-2.078-.271-.704.048-1.391.236-2.022.553-.63.316-1.191.755-1.65 1.29-.46.536-.807 1.158-1.024 1.83-.213.676-.264 1.393-.149 2.093.116.7.394 1.363.812 1.936.419.572.966 1.038 1.598 1.36.632.323 1.33.492 2.04.495zM56.584 167.259c-18.005 0-26.861-5.543-30.546-8.846-.624-.576-1.12-1.276-1.458-2.056-.336-.779-.506-1.621-.497-2.47v-40.584l-2.815 42.783-1.114-.068 3.91-59.89c.01-.14.072-.272.176-.368.103-.097.24-.15.38-.15.143.005.279.065.379.167.1.102.157.238.16.38v57.72c-.005.695.138 1.384.417 2.02.28.637.69 1.207 1.205 1.675 3.558 3.216 12.208 8.582 29.803 8.582 17.594 0 26.245-5.366 29.803-8.572.514-.468.925-1.038 1.204-1.675.28-.637.422-1.325.418-2.02v-57.67c.003-.143.06-.28.16-.382.1-.101.235-.161.378-.166.141 0 .277.053.38.15.104.095.167.227.177.368l3.91 59.89-1.114.068-2.776-42.794v40.585c.008.849-.16 1.691-.498 2.47-.336.78-.833 1.48-1.457 2.056-3.724 3.254-12.58 8.797-30.585 8.797z"/>
    <path fill="#FF5156" d="M89.016 96.166l.322 23.606.186 23.606v10.283c.015.568-.04 1.136-.166 1.691-.26 1.146-.828 2.201-1.642 3.049-.757.713-1.567 1.367-2.424 1.955-1.644 1.197-3.403 2.228-5.25 3.079-7.418 3.324-15.541 4.33-23.459 4.379-7.917.049-16.06-1.055-23.459-4.379-1.858-.827-3.629-1.835-5.288-3.01-.857-.589-1.667-1.243-2.424-1.955-.818-.843-1.386-1.895-1.642-3.04-.126-.558-.181-1.129-.166-1.701V143.378l.185-23.597.323-23.605c.016-.107.07-.204.151-.275.082-.07.186-.109.294-.109.107 0 .212.039.293.11.082.07.135.167.151.274l.333 23.605.224 23.597v10.283c-.007.416.032.833.118 1.241.183.781.575 1.497 1.134 2.072.67.629 1.385 1.207 2.14 1.73 1.56 1.091 3.223 2.024 4.966 2.786 7.018 3.108 14.877 4.066 22.609 4.076 7.732.01 15.64-.977 22.608-4.076 1.744-.762 3.407-1.695 4.966-2.786.755-.523 1.471-1.101 2.14-1.73.56-.575.952-1.291 1.135-2.072.09-.407.13-.824.117-1.241v-10.283l.186-23.597.332-23.605c0-.058.012-.116.034-.17.023-.053.057-.101.099-.142.042-.04.092-.071.146-.092.054-.02.112-.03.17-.026.066-.016.133-.018.199-.004.065.013.127.04.18.081.054.04.097.092.128.151.031.06.048.125.05.192z"/>
    <path fill="#231F20" d="M56.583 139.929c-.368 0-.721-.147-.981-.407s-.407-.613-.407-.981c.012-.065.047-.124.098-.166.05-.042.114-.065.18-.065.067 0 .13.023.181.065.051.042.086.101.098.166 0 .22.088.431.243.587.156.156.368.243.588.243.22 0 .432-.087.587-.243.156-.156.244-.367.244-.587.012-.065.047-.124.097-.166.051-.042.115-.065.181-.065.066 0 .13.023.181.065.051.042.086.101.098.166 0 .368-.146.721-.407.981-.26.26-.613.407-.981.407zM32.332 109.235c-1.164.003-2.326-.075-3.48-.235-.035-.005-.07-.017-.102-.035-.031-.018-.059-.043-.08-.072-.022-.029-.038-.062-.047-.098-.009-.035-.01-.072-.005-.108.012-.072.051-.136.11-.18.058-.043.13-.063.203-.054 6.654.708 13.368-.581 19.285-3.705.032-.019.067-.031.104-.036.037-.005.074-.002.11.008.035.01.069.027.098.051.028.023.052.052.07.085.019.03.031.064.037.1.005.035.003.072-.006.106-.01.035-.026.068-.048.096-.022.028-.05.052-.081.069-4.233 2.473-10.664 4.008-16.168 4.008zM80.835 109.235c-5.503 0-11.935-1.535-16.168-4.008-.031-.017-.059-.041-.081-.069-.022-.028-.039-.061-.048-.096-.009-.034-.01-.071-.005-.106.005-.036.017-.07.037-.1.017-.033.04-.062.07-.085.028-.024.061-.041.097-.051.036-.01.073-.013.11-.008.037.005.072.017.104.036 5.917 3.125 12.631 4.415 19.285 3.705.072-.009.145.011.203.054.059.044.098.108.11.18.005.036.004.073-.005.108-.009.036-.025.069-.047.098-.021.029-.049.054-.08.072-.032.018-.067.03-.103.035-1.153.16-2.315.238-3.48.235zM49.087 77.888h-.088L37.162 73.88c-.07-.023-.128-.073-.161-.14-.033-.066-.039-.142-.015-.212.023-.07.073-.128.14-.16.065-.034.142-.04.212-.016l11.837 4.008c.035.01.067.029.095.053.028.023.05.053.067.085.017.033.026.07.029.106.002.036-.003.073-.015.108-.022.052-.058.097-.105.128-.047.031-.103.048-.16.048zM64.08 77.887c-.058-.002-.115-.02-.163-.056-.047-.035-.082-.084-.1-.14-.013-.035-.018-.071-.015-.108.002-.036.012-.072.028-.105s.04-.062.067-.086c.028-.024.06-.042.096-.053l11.837-4.007c.034-.012.071-.016.107-.014.037.003.072.012.105.029.033.016.062.039.086.066.024.028.042.06.054.095.011.034.016.07.013.107-.002.037-.012.072-.028.105-.017.033-.04.062-.067.086-.028.024-.06.042-.094.053l-11.838 4.028h-.088zM72.535 128.032c-.032.009-.066.009-.097 0-5.096-1.814-10.448-2.804-15.855-2.933-5.374.145-10.691 1.135-15.757 2.933-.034.014-.072.02-.109.019-.037 0-.074-.009-.108-.025-.033-.015-.064-.037-.089-.065-.025-.028-.044-.06-.056-.096-.025-.067-.023-.142.006-.208.03-.066.084-.117.15-.143 5.13-1.842 10.516-2.864 15.963-3.031 5.476.142 10.895 1.159 16.05 3.011.07.026.126.079.157.147.031.067.034.145.01.215-.023.051-.06.095-.107.126-.047.032-.102.049-.158.05z"/>
</svg>
