<svg xmlns="http://www.w3.org/2000/svg" width="106" height="170" fill="none" viewBox="0 0 106 170">
    <path fill="#231F20" d="M74.132 60.766c-2.02-.266-3.877-1.255-5.225-2.783-1.349-1.53-2.097-3.495-2.108-5.533V38.414l6.21-21.86c.45-1.29.618-2.66.494-4.019-.124-1.36-.538-2.676-1.215-3.862-.676-1.186-1.598-2.213-2.704-3.013-1.106-.8-2.371-1.352-3.71-1.622L48.67.178c-1.501-.367-3.085-.163-4.444.572-1.36.735-2.398 1.948-2.913 3.405l-.07.175-.515-.175c-.706-.247-1.454-.348-2.2-.298-.746.05-1.474.25-2.14.59-.667.338-1.258.808-1.738 1.381s-.84 1.237-1.057 1.953c-.21.67-.265 1.38-.163 2.074.102.695.36 1.358.752 1.94.394.582.913 1.068 1.52 1.422.606.354 1.285.567 1.985.623h.608l-5.38 15.533c-.047.184-.052.377-.013.563.038.187.119.362.235.513.108.143.247.26.408.341.16.082.337.125.516.127h2.106v11.696c.003.775.312 1.517.86 2.064.547.548 1.29.857 2.064.86h5.65l-4.902 11.007c-.447 1.002-1.145 1.873-2.026 2.528-.88.655-1.914 1.073-3.003 1.214l-3.51.468c-8.631 1.092-16.57 5.291-22.33 11.812C3.207 79.086.018 87.482 0 96.183v61.29h1.17v-61.29c.017-8.412 3.097-16.53 8.664-22.837 5.566-6.306 13.238-10.37 21.583-11.434l3.509-.468c1.174-.171 2.294-.607 3.275-1.275v.106L56.05 46.59c.195-.147.34-.351.413-.584.074-.233.072-.484-.004-.716-.076-.233-.223-.435-.42-.58-.197-.144-.435-.223-.68-.226l-8.807-.117H39.09c-.466 0-.912-.184-1.24-.513-.33-.33-.515-.776-.515-1.24V30.916c0-.31-.123-.608-.342-.828-.22-.219-.517-.342-.827-.342h-2.13l5.498-15.872h19.089c.53.001 1.052.122 1.528.354.477.232.894.57 1.221.986.328.416.557.901.67 1.419.114.517.108 1.053-.016 1.569l-2.339 9.825c-.444 1.89-.35 3.866.27 5.705.62 1.84 1.742 3.469 3.24 4.704l2.444 2.07v11.966c.014 2.323.869 4.563 2.406 6.304 1.537 1.742 3.653 2.868 5.957 3.17 8.384 1 16.111 5.035 21.725 11.342 5.613 6.307 8.724 14.45 8.744 22.894v61.173h1.17V96.183c-.016-8.734-3.231-17.16-9.037-23.686-5.805-6.526-13.8-10.699-22.474-11.731z"/>
    <path fill="#939598" d="M30.306 129.939c-.049 0-.096-.012-.139-.034-.042-.023-.08-.055-.107-.094-.04-.068-.053-.148-.035-.224.017-.076.063-.143.129-.186.081 0 8.187-5.193 22.609-5.193 14.784 0 22.55 5.146 22.633 5.205.03.021.058.048.078.08.02.031.034.067.041.104.007.037.006.075-.003.112-.008.036-.024.071-.046.102-.02.032-.047.06-.078.081-.031.022-.066.037-.104.045-.037.007-.075.007-.112 0-.037-.008-.073-.023-.104-.044-.082 0-7.72-5.1-22.305-5.1-14.235 0-22.223 5.053-22.294 5.1-.048.032-.105.049-.163.046zM52.763 140.466c-.195.009-.388-.023-.57-.094-.18-.071-.345-.178-.483-.315-.137-.138-.244-.302-.315-.484-.07-.181-.103-.374-.094-.569 0-.077.03-.152.085-.206.055-.055.13-.086.207-.086.077 0 .152.031.207.086.055.054.085.129.085.206 0 .233.093.456.257.621.165.164.388.257.62.257.233 0 .456-.093.62-.257.165-.165.258-.388.258-.621 0-.077.03-.152.085-.206.055-.055.13-.086.207-.086.078 0 .152.031.207.086.055.054.086.129.086.206.01.195-.021.39-.091.572-.07.182-.177.347-.315.485-.138.137-.303.245-.485.315s-.377.1-.571.09zM27.428 108.218c-1.28.003-2.558-.087-3.825-.269-.075-.011-.143-.052-.19-.113-.045-.061-.065-.138-.055-.214.004-.038.016-.075.035-.108.02-.034.045-.063.075-.086.031-.023.066-.039.104-.048.037-.009.076-.01.113-.004 7.006.812 14.09-.565 20.282-3.941.066-.04.144-.052.218-.035.074.018.139.064.18.128.037.068.048.147.03.223-.016.075-.06.142-.124.186-5.166 2.817-10.958 4.289-16.843 4.281zM78.226 108.218c-5.884.008-11.676-1.464-16.843-4.281-.063-.044-.107-.111-.124-.186-.018-.076-.007-.155.03-.223.042-.064.106-.11.18-.128.075-.017.153-.005.218.035 6.192 3.374 13.277 4.751 20.282 3.941.038-.006.077-.005.114.004.037.009.072.025.103.048.03.023.056.052.075.086.02.033.031.07.036.108.01.076-.01.153-.056.214s-.114.102-.19.113c-1.267.182-2.545.272-3.825.269zM42.108 74.147h-.094l-6.913-2.34c-.072-.026-.132-.08-.165-.15-.033-.07-.036-.15-.01-.223.012-.036.03-.069.055-.097.025-.028.055-.051.09-.068.033-.016.07-.026.107-.027.038-.002.075.003.11.016l6.913 2.34c.06.025.111.07.143.128.032.058.043.124.032.19-.01.064-.043.124-.092.168-.048.044-.11.07-.176.075v-.012zM63.535 74.147c-.062.003-.123-.015-.174-.051-.051-.036-.088-.088-.106-.148-.015-.035-.022-.073-.021-.11 0-.039.01-.076.027-.11.016-.035.04-.065.07-.09.028-.024.062-.042.099-.052l6.913-2.34c.035-.014.073-.021.11-.02.039 0 .076.01.11.026.035.017.065.04.09.07.024.03.042.063.052.1.026.073.023.153-.01.223s-.092.125-.165.151l-6.901 2.34-.094.011z"/>
    <path fill="#FF5156" d="M89.268 94.324c4.517 17.41 7.183 35.249 7.953 53.219.012 3.591-1.023 7.107-2.978 10.119-1.955 3.012-4.744 5.389-8.028 6.841-2.126.858-4.311 1.562-6.538 2.106-4.404 1.045-8.859 1.865-13.346 2.456-4.5.548-9.025.86-13.556.936-4.538-.02-9.07-.333-13.568-.936-4.493-.535-8.946-1.356-13.334-2.456-2.237-.523-4.428-1.227-6.55-2.106-2.216-.937-4.21-2.332-5.849-4.094-3.333-3.45-5.18-8.069-5.146-12.866.766-17.97 3.429-35.808 7.942-53.219.055-.107.139-.197.242-.26.103-.061.222-.093.343-.09.109.052.2.135.263.24.062.103.093.223.088.344-1.989 8.656-3.51 17.545-4.68 26.317-.584 4.445-1.052 8.89-1.403 13.334-.35 4.445-.584 8.89-.701 13.334.03 4.246 1.707 8.313 4.678 11.346 1.465 1.506 3.22 2.7 5.158 3.509 2.025.785 4.095 1.449 6.2 1.988 4.32 1.016 8.694 1.797 13.1 2.339 4.388.503 8.8.776 13.217.819 8.864-.042 17.694-1.102 26.317-3.158 2.105-.522 4.172-1.186 6.187-1.988 1.939-.809 3.694-2.003 5.158-3.509 2.958-3.041 4.633-7.104 4.679-11.346-.117-4.327-.351-8.889-.702-13.334-.35-4.444-.819-8.889-1.404-13.334-1.17-8.889-2.69-17.661-4.678-26.317-.117-.234.117-.468.35-.585.062-.029.129-.042.196-.039.068.003.133.023.191.058.058.035.107.083.141.141.035.058.055.124.058.191z"/>
</svg>
