<svg xmlns="http://www.w3.org/2000/svg" width="144" height="151" fill="none" viewBox="0 0 144 151">
    <path fill="#231F20" d="M75.627 62.285c-.092-.365-.303-.69-.599-.92-.295-.23-.658-.355-1.031-.352H61.436l-9.148 20.683.857.685 21.708-18.18c.32-.187.57-.477.71-.824s.163-.73.064-1.092zM51.169 19.073H79.62c.718 0 1.426.163 2.072.48.645.315 1.212.775 1.657 1.344.446.569.758 1.233.914 1.941.156.709.151 1.444-.014 2.15l-3.136 13.566c-.597 2.593-.475 5.303.355 7.83.829 2.527 2.332 4.773 4.343 6.49l3.952 3.37 9.396-33.451c.616-1.773.849-3.659.684-5.53-.165-1.872-.725-3.686-1.642-5.32-.917-1.634-2.169-3.05-3.672-4.153-1.503-1.103-3.223-1.867-5.042-2.24L65.885.234c-2.038-.491-4.184-.207-6.029.799-1.845 1.005-3.26 2.662-3.976 4.655l-4.712 13.384z"/>
    <path fill="#231F20" d="M51.791 19.073h6.91c.24.001.478-.05.696-.152.22-.101.413-.25.57-.434.156-.185.271-.402.336-.637.066-.234.08-.48.041-.72l-1.561-9.37c-.049-.297-.176-.574-.369-.803-.192-.229-.442-.401-.723-.498l-2.404-.839c-.954-.33-1.963-.463-2.969-.393-1.006.07-1.987.342-2.888.8-.9.459-1.702 1.094-2.357 1.87-.655.775-1.151 1.674-1.459 2.646-.312.982-.39 2.025-.227 3.044.163 1.018.563 1.983 1.165 2.816.603.832 1.392 1.508 2.302 1.972.911.465 1.917.704 2.937.698z"/>
    <path fill="#231F20" d="M143.268 150.334h-1.589v-43.213c-.008-6.17-2.432-12.084-6.743-16.447-4.311-4.362-10.155-6.816-16.251-6.824H94.517c-1.466 0-2.872-.59-3.908-1.638-1.037-1.05-1.62-2.472-1.62-3.956V17.325H54.21l-8.084 23.592h2.902c.21-.002.417.038.61.119.194.08.37.198.518.348.148.15.265.328.344.524.08.196.12.405.117.617v16.083c0 .638.25 1.25.697 1.7.445.452 1.05.705 1.68.705h10.184l-8.65 19.467c-.439.974-1.142 1.803-2.027 2.39-.886.586-1.917.907-2.975.924H24.652c-3.027-.002-6.025.6-8.822 1.77-2.797 1.171-5.339 2.888-7.48 5.053-2.142 2.164-3.841 4.735-5.001 7.564-1.16 2.83-1.758 5.862-1.76 8.926v43.227H0v-43.227c-.004-6.601 2.58-12.934 7.182-17.611 4.603-4.677 10.85-7.316 17.373-7.338h24.873c.762-.002 1.507-.225 2.147-.645.64-.419 1.146-1.016 1.46-1.718l7.696-17.216h-7.738c-1.05-.003-2.057-.427-2.8-1.18-.743-.751-1.162-1.77-1.166-2.833v-16.04h-2.902c-.253 0-.502-.062-.727-.181-.224-.12-.415-.293-.558-.505-.138-.201-.229-.432-.265-.675-.036-.242-.016-.49.058-.724l8.443-24.71h37.475v62.483c.004 1.064.423 2.082 1.166 2.834.743.752 1.75 1.176 2.8 1.18h24.168c6.516.011 12.763 2.636 17.371 7.299 4.607 4.663 7.201 10.985 7.212 17.58v43.227z"/>
    <path fill="#FF5156" d="M96.08 82.227h14.992l7.545-.07c2.593.015 5.171.406 7.655 1.161 4.965 1.659 9.288 4.859 12.354 9.146 1.528 2.126 2.708 4.487 3.496 6.992.766 2.501 1.167 5.102 1.188 7.72.015.211-.054.42-.192.58-.137.16-.332.258-.54.273-.209.015-.415-.055-.574-.194-.158-.139-.255-.336-.269-.547v-.112c-.536-4.767-2.379-9.286-5.32-13.048-2.83-3.647-6.684-6.343-11.055-7.733-2.165-.722-4.423-1.118-6.702-1.175-2.487-.07-4.988 0-7.489-.224l-7.49-.405c-2.501-.238-5.002-.378-7.503-.714h-.097c-.208-.03-.396-.144-.522-.314-.127-.17-.183-.383-.155-.595.008-.184.08-.36.205-.495.124-.136.291-.223.472-.246zM0 107.107c-.011-5.438 1.73-10.73 4.96-15.076 3.207-4.378 7.763-7.552 12.948-9.02.65-.154 1.3-.364 1.963-.476l2.017-.293c1.382-.098 2.764-.168 3.952-.14h23.145c.211.004.411.09.559.242.147.152.23.356.23.569 0 .194-.07.381-.197.526-.128.145-.304.236-.494.257h-.097c-2.57.336-5.14.476-7.71.727l-7.711.42c-2.57.168-5.14.14-7.725.21-1.382 0-2.432.112-3.606.21l-1.728.391c-.58.098-1.133.308-1.7.448-2.259.589-4.413 1.533-6.383 2.796-1.95 1.34-3.707 2.944-5.224 4.77-1.567 1.838-2.814 3.933-3.69 6.194-.947 2.298-1.58 4.717-1.878 7.189v.112c-.034.209-.147.396-.314.524s-.377.185-.585.161c-.189-.016-.366-.099-.5-.235-.134-.136-.216-.315-.232-.506z"/>
    <path fill="#231F20" d="M22.773 129.579h-1.59v20.754h1.59v-20.754zM122.085 129.579h-1.589v20.754h1.589v-20.754z"/>
    <path fill="#939598" d="M50.34 146.88c-6.286-.003-12.532-1.018-18.503-3.007-.05-.016-.095-.041-.135-.075-.04-.035-.072-.076-.095-.123-.023-.047-.037-.098-.04-.151-.003-.052.004-.105.021-.154.016-.05.041-.097.075-.137.034-.04.075-.072.121-.096.047-.023.097-.037.15-.041.05-.003.103.004.152.022 10.41 3.455 21.57 3.887 32.21 1.245.103-.026.211-.009.302.046.09.055.156.144.182.247.025.104.009.214-.046.305-.054.092-.142.158-.244.185-4.632 1.146-9.382 1.728-14.15 1.734zM93.411 146.879c-4.77-.023-9.52-.624-14.15-1.79-.102-.026-.19-.093-.244-.184-.055-.092-.071-.202-.046-.305.011-.051.033-.099.063-.141.03-.043.067-.079.111-.106.044-.027.092-.046.143-.054.051-.008.103-.006.153.007 10.645 2.642 21.809 2.211 32.224-1.245.049-.017.101-.024.153-.021.051.003.102.017.148.04.047.024.088.057.122.097.033.039.059.086.074.136.018.05.025.102.022.154-.004.053-.017.104-.04.151-.024.047-.056.089-.095.123-.04.034-.086.06-.135.075-5.968 2.009-12.214 3.042-18.503 3.063zM59.488 98.94h-.124L45.38 94.114c-.05-.018-.097-.045-.136-.08-.04-.036-.072-.079-.095-.127-.023-.048-.037-.1-.04-.154-.003-.053.004-.106.022-.157.015-.05.04-.096.074-.136.034-.04.075-.073.122-.096.046-.024.097-.038.149-.041.051-.003.103.004.152.021l14.053 4.825c.05.016.096.042.135.076.04.034.072.076.095.123.023.047.037.098.04.15.004.053-.004.105-.02.155-.034.088-.096.162-.176.21-.08.049-.175.068-.267.055zM83.78 98.94c-.085-.001-.167-.029-.237-.079-.069-.05-.121-.12-.15-.201-.017-.05-.024-.102-.02-.155.003-.052.016-.103.04-.15.023-.047.055-.09.094-.123.04-.034.086-.06.135-.076l14.053-4.81c.05-.018.101-.025.153-.022.052.003.103.017.149.04.046.024.088.057.121.097.034.04.06.086.075.136.017.05.025.104.022.157-.004.054-.017.106-.04.154s-.055.091-.095.127c-.04.035-.086.062-.136.08l-14.04 4.824h-.124z"/>
</svg>
