<svg xmlns="http://www.w3.org/2000/svg" width="105" height="165" fill="none" viewBox="0 0 105 165">
    <path fill="#231F20" d="M86.3 162.297c-22.5 3.603-45.4 3.603-67.9 0l1.2-5.805c21.8 2.402 43.8 2.402 65.6 0l1.1 5.805zM65.2 80.33L38.6 56.11 44.8 42.2h-5.3c-1.5 0-2.7-1.201-2.7-2.702v-10.91h-2c-.6 0-1.1-.5-1.1-1.1 0-.1 0-.2.1-.3l5.8-16.714h25.6V80.33zM39.9 55.81l24.2 22.018V11.574H40.3l-5.5 15.913h2c.6 0 1.1.5 1.1 1.1v10.91c0 .9.7 1.6 1.6 1.6h7L39.9 55.81z"/>
    <path fill="#231F20" d="M38.3 12.774h19.5c1.8 0 3.3 1.502 3.3 3.303 0 .2 0 .5-.1.7l-2.1 9.208c-.8 3.603.4 7.306 3.2 9.708l2.7 2.302 6.4-22.618c1.6-4.604-.8-9.708-5.4-11.31l-1.2-.3L48.5.164c-2.9-.7-5.8.9-6.8 3.703l-3.4 8.907z"/>
    <path fill="#231F20" d="M38.7 12.774h4.8c.6 0 1.1-.5 1.1-1.1v-.2l-1.1-6.306c-.1-.4-.4-.7-.8-.9l-1.6-.601c-2.7-.9-5.7.5-6.6 3.203v.1c-.8 2.302.5 4.804 2.8 5.604.5.1.9.2 1.4.2z"/>
    <path fill="#fff" d="M.6 152.49V80.23c0-10.808 7.9-19.916 18.6-21.517l19.7-2.802 13.3.8v5.305l1.5-6.105 1.5-.5 1-.301 6.4-2.202c.1 0 2.9 3.103 3 3.103l19.6 2.802c10.7 1.501 18.6 10.709 18.6 21.518v72.159"/>
    <path fill="#231F20" d="M104.5 152.49h-1.1V80.23c0-10.508-7.7-19.416-18.1-20.917L65.7 56.51c-.2-.1-.2-.1-1.6-1.602l-1.4-1.501-8.4 2.902-1.5 5.805-1.1-.1v-4.804l-12.8-.8-19.7 2.802C8.8 60.714 1.1 69.62 1.1 80.13v72.36H0V80.23c.1-11.009 8.2-20.417 19.1-22.018l19.8-2.802 13.9.8v1.401l.6-2.201 9.4-3.203c.3 0 .3 0 2.1 1.902.4.5.9 1 1.2 1.2l19.4 2.803c10.9 1.601 19 11.009 19.1 22.018v72.36h-.1z"/>
    <path fill="#fff" d="M58.5 63.716l9.4-7.006-2.2-4.804-11.3 3.904 4.1 7.906z"/>
    <path fill="#231F20" d="M58.3 64.516l-4.7-9.107L66 51.106l2.5 5.704-10.2 7.706zm-3.2-8.406l3.6 6.805 8.5-6.405-1.8-4.003-10.3 3.603z"/>
    <path fill="#fff" d="M47.4 63.717l-9-7.807 1.8-4.103L52 55.81c.1 0 .1.1.1.2l-4.7 7.707z"/>
    <path fill="#231F20" d="M47.5 64.618l-9.8-8.407 2.2-4.904 12.5 4.303.2.3c.1.2 0 .4-.1.6l-5 8.108zM39 55.81l8.3 7.106 4-6.605-10.8-3.703L39 55.81zM54.4 71.322c.442 0 .8-.358.8-.8 0-.443-.358-.801-.8-.801-.442 0-.8.358-.8.8 0 .443.358.801.8.801zM54.4 82.232c.442 0 .8-.358.8-.8 0-.443-.358-.801-.8-.801-.442 0-.8.358-.8.8 0 .443.358.801.8.801zM54.4 93.04c.442 0 .8-.358.8-.8 0-.442-.358-.8-.8-.8-.442 0-.8.358-.8.8 0 .442.358.8.8.8zM54.4 103.949c.442 0 .8-.358.8-.801 0-.442-.358-.8-.8-.8-.442 0-.8.358-.8.8 0 .443.358.801.8.801zM54.4 114.758c.442 0 .8-.359.8-.801 0-.442-.358-.801-.8-.801-.442 0-.8.359-.8.801 0 .442.358.801.8.801zM54.4 125.668c.442 0 .8-.359.8-.801 0-.442-.358-.801-.8-.801-.442 0-.8.359-.8.801 0 .442.358.801.8.801zM54.4 136.476c.442 0 .8-.358.8-.8 0-.443-.358-.801-.8-.801-.442 0-.8.358-.8.801 0 .442.358.8.8.8zM54.4 147.385c.442 0 .8-.359.8-.801 0-.442-.358-.801-.8-.801-.442 0-.8.359-.8.801 0 .442.358.801.8.801z"/>
    <path fill="#231F20" d="M52.8 158.294h-1.1V56.41l-3.3-1.1.4-1.001 4 1.4v102.585z"/>
    <path fill="#424143" d="M26 154.991c-.2 0-.4-.2-.4-.4v-.601c0-.2.2-.4.4-.4s.4.2.4.4v.501c0 .3-.2.4-.4.5 0-.1 0-.1 0 0zM26 152.79c-.2 0-.4-.2-.4-.4v-1.101c0-.2.2-.4.4-.4s.4.2.4.4v1.101c0 .2-.2.4-.4.4zm0-2.702c-.2 0-.4-.2-.4-.4v-1.101c0-.2.2-.401.4-.401s.4.201.4.401v1.101c-.1.2-.2.4-.4.4zm0-2.702c-.2 0-.4-.2-.4-.401v-1.101c0-.2.2-.4.4-.4s.4.2.4.4v1.101c0 .201-.2.401-.4.401zm0-2.702c-.2 0-.4-.201-.4-.401v-1.101c0-.2.1-.4.3-.5.2 0 .4.1.5.3v1.201c0 .3-.2.501-.4.501zm-.1-2.703c-.2 0-.4-.2-.4-.4v-1.001l.8-.1v1.101c0 .3-.2.4-.4.4zm-.1-2.702c-.2 0-.4-.2-.4-.4v-1.001l.4-.1h.4v1.101c0 .2-.2.4-.4.4zm-.2-2.702c-.2 0-.4-.2-.4-.401l-.1-1.1c0-.201.1-.401.4-.401.2 0 .4.1.4.3l.1 1.101c.1.301-.1.501-.4.501zm-.1-2.702c-.2 0-.4-.201-.4-.401l-.1-1.101c0-.2.1-.4.4-.4.2 0 .4.1.4.4l.1 1.101c0 .2-.2.3-.4.401zm-.3-2.703c-.2 0-.4-.2-.4-.4l-.1-1.001.4-.1h.4l.1 1.101c.1.2-.1.4-.4.4.1 0 .1 0 0 0zm-.2-2.702c-.2 0-.4-.2-.4-.4l-.1-1.101c0-.2.1-.4.3-.501.2 0 .4.101.5.301v.1l.1 1.101c0 .2-.2.4-.4.5 0-.1 0-.1 0 0zm-.3-2.702c-.2 0-.4-.2-.4-.4l-.1-1.101c0-.201.1-.401.3-.501.2 0 .4.1.5.3v.101l.1 1.1c0 .201-.2.401-.4.501zm-.4-2.802c-.2 0-.4-.201-.4-.401l-.1-1.101c0-.2.1-.4.4-.5.2 0 .4.1.5.4l.1 1.101c-.1.3-.2.501-.5.501zm-.4-2.703c-.2 0-.4-.1-.4-.3l-.2-1.101c0-.2.1-.4.4-.4.2 0 .4.1.4.3l.2 1.101c0 .2-.1.4-.4.4.1 0 .1 0 0 0zm-.4-2.702c-.2 0-.4-.1-.4-.3l-.2-1.101c0-.2.1-.4.3-.5.2 0 .4.1.5.3l.2 1.101c0 .3-.1.5-.4.5zm-.4-2.602c-.2 0-.4-.1-.4-.3l-.2-1.101c0-.2.1-.401.3-.501.2 0 .4.1.5.301l.2 1.101c0 .2-.2.4-.4.5zm-.6-2.702c-.2 0-.4-.1-.4-.301l-.2-1.1c0-.201.1-.401.3-.501.2 0 .4.1.5.3l.2 1.101c.1.301-.1.501-.4.501zm-.5-2.602c-.2 0-.4-.1-.4-.301l-.2-1.101c0-.2.1-.4.3-.5.2 0 .4.1.5.3l.2 1.101c.1.2-.1.401-.4.501.1 0 .1 0 0 0zm-.6-2.703c-.2 0-.4-.1-.4-.3l-.2-1.101c-.1-.2.1-.4.3-.5.2 0 .4.1.5.3l.2 1.101c.1.2-.1.4-.4.5.1 0 .1 0 0 0zm-.6-2.602c-.2 0-.4-.1-.4-.3l-.3-1.001c-.1-.2.1-.4.3-.5.2-.1.4.1.5.3l.3 1.101c.1.2-.1.4-.3.5 0-.1 0-.1-.1-.1zm-.6-2.702c-.2 0-.3-.1-.4-.3l-.3-1.001c-.1-.2.1-.4.3-.5.2-.1.4.1.5.3l.3 1.001c.1.2-.1.4-.3.5h-.1zm-.7-2.602c-.2 0-.3-.1-.4-.3l-.3-1.001c-.1-.2.1-.4.3-.5.2-.1.4.1.5.3l.3 1.1c.1.2-.1.4-.3.5l-.1-.1zm-.8-2.602c-.2 0-.3-.1-.4-.3l-.3-1.001c-.1-.2.1-.4.3-.5.2-.1.4.1.5.3l.3 1c.1.2-.1.4-.3.5h-.1zm-.8-2.603c-.2 0-.3-.1-.4-.3l-.3-1c-.1-.2.1-.4.3-.5.2-.101.4.1.5.3l.3 1c.1.2 0 .4-.3.5h-.1zm-.8-2.602c-.2 0-.3-.1-.4-.3l-.3-1c-.1-.2 0-.401.3-.501.2-.1.4 0 .5.3l.3 1.001c.1.2-.1.4-.3.5h-.1zM16.3 88.636c-.2 0-.3-.1-.4-.3l-.2-.5c-.1-.2.1-.4.3-.5.2-.1.4.1.5.3l.2.5c.1.2 0 .4-.3.5h-.1zM79.6 154.991c-.2 0-.4-.2-.4-.4v-.601c0-.2.1-.4.4-.4h.1c.2 0 .4.2.4.4v.501c-.1.3-.3.5-.5.5zM79.6 152.789c-.2 0-.4-.2-.4-.4v-1.101c0-.2.1-.4.3-.4h.1c.2 0 .4.2.4.4v1.101c0 .2-.2.4-.4.4zm0-2.702c-.2 0-.4-.2-.4-.4v-1.101c0-.2.2-.401.4-.401s.4.201.4.401v1.101c0 .2-.2.4-.4.4zm0-2.702c-.2 0-.4-.2-.4-.401v-1.1c0-.201.2-.401.4-.401s.4.2.4.401v1.1c0 .201-.2.401-.4.401zm0-2.702c-.2 0-.4-.201-.4-.401v-1.101c0-.2.2-.4.4-.4s.4.2.4.4v1.101c0 .2-.2.401-.4.401zm0-2.703c-.2 0-.4-.2-.4-.4v-1.101c0-.2.2-.4.4-.4s.4.2.4.4v1.101c0 .2-.2.4-.4.4zm0-2.702c-.2 0-.4-.2-.4-.4v-1.001c0-.2.2-.4.4-.4s.4.2.4.4v1.101c0 .2-.2.3-.4.3zm.1-2.702c-.2 0-.4-.2-.4-.4v-1.001c0-.2.2-.401.4-.401s.4.201.4.401v1.101c0 .1-.2.3-.4.3zm.2-2.702c-.2 0-.4-.2-.4-.401l.1-1.101c0-.2.2-.4.4-.4h.1c.2 0 .4.2.4.4l-.1 1.101c-.1.201-.3.401-.5.401zm.2-2.703c-.2 0-.4-.2-.4-.4l.1-1.001c0-.2.2-.4.4-.4s.4.2.4.4l-.1 1.101c0 .1-.2.3-.4.3zm.2-2.702c-.2 0-.4-.2-.4-.4l.1-1.101c0-.2.2-.4.4-.4s.4.2.4.4l-.1 1.101c0 .2-.2.4-.4.4zm.2-2.702c-.2 0-.4-.2-.4-.4l.1-1.101c0-.2.2-.401.4-.401s.4.201.4.401l-.1 1.101c.1.3-.1.4-.4.4zm.3-2.702c-.2 0-.4-.2-.4-.401l.1-1.1c0-.201.3-.401.5-.301.2 0 .3.2.3.401l-.1 1.101c.1.2-.1.3-.4.3zm.4-2.702c-.3 0-.4-.201-.4-.501l.1-1.101c0-.2.2-.4.4-.4s.4.2.4.5l-.1 1.101c0 .3-.2.401-.4.401zm.4-2.703c-.3 0-.4-.2-.4-.5l.2-1.101c0-.2.2-.4.4-.3.2 0 .4.2.3.4l-.2 1.101c.1.3-.1.4-.3.4zm.4-2.602c-.3 0-.4-.2-.4-.5l.2-1.101c0-.2.2-.4.5-.3.2 0 .4.2.3.5l-.2 1.101c0 .1-.2.3-.4.3zm.5-2.702c-.3 0-.4-.2-.4-.5l.2-1.101c0-.201.2-.401.5-.301.2 0 .4.201.3.401l-.2 1.101c-.1.3-.2.4-.4.4zm.5-2.602c-.3 0-.4-.3-.4-.501l.2-1.101c0-.2.2-.4.5-.3.2 0 .4.3.3.501l-.2 1.101c-.1.1-.2.3-.4.3zm.5-2.702c-.3 0-.4-.301-.4-.501l.2-1.101c0-.2.3-.4.5-.3.2 0 .4.3.3.5l-.2 1.101c-.1.2-.2.301-.4.301zm.6-2.603c-.3-.1-.4-.3-.4-.5l.2-1.101c0-.2.3-.4.5-.3.2 0 .4.3.3.5l-.2 1.101c-.1.1-.2.3-.4.3zm.6-2.702h-.1c-.2-.1-.4-.3-.3-.5l.3-1.001c.1-.2.3-.4.5-.3.2 0 .4.3.3.5l-.3 1.001c-.1.2-.2.3-.4.3zm.6-2.602c-.3-.1-.4-.3-.4-.5l.3-1.001c.1-.2.3-.3.5-.3.2.1.3.3.3.5l-.3 1c0 .2-.2.301-.4.301zm.7-2.602h-.1c-.2-.1-.3-.3-.3-.5l.3-1.001c.1-.2.3-.3.5-.3.2.1.3.3.3.5l-.3 1c0 .2-.2.3-.4.3zm.7-2.602h-.1c-.2-.1-.3-.3-.3-.5l.3-1.002c.1-.2.3-.3.5-.3.2.1.3.3.3.5l-.3 1.102c0 .1-.2.2-.4.2zm.7-2.602c-.3-.1-.4-.3-.4-.5l.3-1.002c.1-.2.3-.3.5-.3.2.1.3.3.3.5l-.3 1.001c0 .2-.2.3-.4.3zM88.1 88.637c-.3-.1-.4-.3-.4-.5l.1-.5c.1-.201.3-.301.5-.301.2.1.3.3.3.5l-.1.5c0 .2-.2.301-.4.301z"/>
    <path fill="#F05459" d="M16.6 87.537c-.8 8.707-1.1 17.414-1.3 26.221-.2 8.708-.3 17.515-.3 26.222v11.51c0 .4.1.9.3 1.301.3.8.9 1.501 1.7 2.001l1.2.601c.5.1 1 .2 1.4.2 2.2.2 4.3.4 6.5.6 8.7.701 17.4 1.101 26.1 1.101 8.7 0 17.5-.3 26.1-1.101 2.2-.2 4.3-.4 6.5-.6l.8-.1c.2 0 .4-.1.7-.1.4-.1.8-.3 1.2-.601.7-.5 1.3-1.201 1.7-2.001.2-.401.3-.901.3-1.301v-11.51c-.1-8.707-.2-17.514-.4-26.222-.2-8.807-.5-17.514-1.1-26.221 0-.2.2-.4.4-.5.2 0 .4.2.5.4.8 8.707 1.3 17.514 1.7 26.221.4 8.808.6 17.515.8 26.322l.1 6.606v5.004c-.1.6-.2 1.301-.4 1.901-.5 1.201-1.3 2.302-2.4 3.003-.5.4-1.1.6-1.8.8-.3.1-.7.201-1 .201-.3 0-.6.1-.8.1-2.2.2-4.4.5-6.6.6-8.7.801-17.5 1.201-26.3 1.201s-17.6-.4-26.3-1.201l-6.6-.6c-.3 0-.5 0-.9-.1-.3 0-.7-.101-1-.201-2.6-.8-4.4-3.002-4.6-5.704v-5.105l.1-6.605c.2-17.514.7-35.029 2.6-52.543.1-.2.3-.4.5-.3.4.1.5.3.6.5z"/>
    <path fill="#231F20" d="M53.9 41.7h-8.2l-3.5 7.806 12-6.606c.3-.2.4-.5.2-.8-.1-.3-.3-.4-.5-.4z"/>
    <path fill="#231F20" d="M41 50.706l4.3-9.608h8.6c.5 0 1 .4 1.1.9.1.5-.1 1.001-.6 1.302L41 50.706zm5-8.507l-2.7 6.005 10.6-5.905v-.1H46z"/>
</svg>
