<svg xmlns="http://www.w3.org/2000/svg" width="144" height="151" fill="none" viewBox="0 0 144 151">
    <path fill="#231F20" d="M143.222 130.104h-1.586v20.226h1.586v-20.226zM92.817 83.49c-.671-.334-1.237-.85-1.635-1.49-.398-.641-.611-1.381-.617-2.138V52.72l8.406-30.001c.575-1.623.826-3.344.738-5.066-.088-1.721-.513-3.407-1.251-4.96-.738-1.554-1.774-2.944-3.047-4.088-1.273-1.145-2.759-2.022-4.37-2.58-.476-.16-1.11-.321-1.745-.482L65.663.245c-2.037-.504-4.187-.225-6.033.783-1.846 1.009-3.257 2.674-3.959 4.675v.144l-.428-.144c-.948-.328-1.95-.464-2.95-.4-.999.065-1.976.328-2.875.776-.899.447-1.701 1.07-2.362 1.831-.66.762-1.166 1.648-1.488 2.608v.16c-.512 1.64-.366 3.417.405 4.949.772 1.531 2.107 2.695 3.719 3.238.468.106.947.155 1.427.145h.825l-7.28 21.252v.578c0 .426.167.834.464 1.135.298.301.701.47 1.122.47h2.855v16.052c0 1.065.418 2.085 1.161 2.838.744.752 1.753 1.175 2.804 1.175h7.66L52.5 80.97c-.369.891-1.045 1.616-1.904 2.038L24.108 99.221l.825 1.38 26.281-16.164c1.169-.582 2.088-1.575 2.586-2.793l.079-.16L74.656 64.13c.322-.19.572-.48.715-.828.144-.348.171-.733.079-1.098-.075-.368-.274-.698-.564-.932-.29-.235-.651-.36-1.022-.352H52.927c-.63 0-1.236-.254-1.682-.705-.446-.452-.697-1.064-.697-1.703V42.462c0-.426-.167-.835-.464-1.136-.298-.3-.701-.47-1.122-.47h-2.855l7.423-21.83h25.885c1.262 0 2.472.507 3.364 1.41.893.903 1.394 2.128 1.394 3.405.025.382-.029.765-.159 1.124l-3.172 13.484c-.615 2.593-.495 5.309.347 7.836s2.37 4.763 4.411 6.45l3.331 2.84v24.287c.003 1.042.29 2.062.831 2.949.54.887 1.312 1.605 2.23 2.075l27.725 17.657.84-1.364-27.74-17.69zM1.586 130.104H0v20.226h1.586v-20.226zM22.68 129.622h-1.585v20.707h1.586v-20.707zM121.969 129.622h-1.586v20.707h1.586v-20.707z"/>
    <path fill="#414042" d="M1.586 82.88H.793c-.086.014-.175.01-.259-.014-.084-.024-.162-.066-.229-.123-.066-.057-.12-.129-.157-.209-.036-.08-.055-.168-.055-.256 0-.089.019-.176.055-.256.037-.08.09-.152.157-.209.067-.057.145-.1.23-.123.083-.023.172-.028.258-.014h.793c.141.023.27.097.362.207.092.11.143.25.143.395 0 .145-.05.284-.143.395-.093.11-.221.183-.362.207zM41.238 82.88h-1.586c-.086.014-.175.01-.259-.014-.084-.024-.162-.066-.229-.123-.066-.057-.12-.129-.157-.209-.036-.08-.055-.168-.055-.256 0-.089.019-.176.056-.256.036-.08.09-.152.156-.209.067-.057.145-.1.23-.123.083-.023.172-.028.258-.014h1.586c.141.023.27.097.362.207.093.11.143.25.143.395 0 .145-.05.284-.143.395-.093.11-.22.183-.362.207zm-3.965 0h-1.586c-.087.014-.175.01-.259-.014-.084-.024-.162-.066-.229-.123-.066-.057-.12-.129-.157-.209-.036-.08-.055-.168-.055-.256 0-.089.019-.176.055-.256.037-.08.09-.152.157-.209.067-.057.145-.1.229-.123.084-.023.172-.028.259-.014h1.586c.14.023.27.097.362.207.092.11.143.25.143.395 0 .145-.05.284-.143.395-.093.11-.221.183-.362.207zm-3.965 0h-1.586c-.087.014-.175.01-.26-.014-.083-.024-.162-.066-.228-.123-.067-.057-.12-.129-.157-.209-.037-.08-.056-.168-.056-.256 0-.089.02-.176.056-.256.037-.08.09-.152.157-.209.066-.057.145-.1.229-.123.084-.023.172-.028.259-.014h1.586c.14.023.269.097.361.207.093.11.144.25.144.395 0 .145-.05.284-.144.395-.092.11-.22.183-.361.207zm-3.965 0h-1.587c-.086.014-.174.01-.258-.014-.085-.024-.163-.066-.23-.123-.066-.057-.12-.129-.156-.209-.037-.08-.056-.168-.056-.256 0-.089.02-.176.056-.256.037-.08.09-.152.157-.209.066-.057.145-.1.229-.123.084-.023.172-.028.258-.014h1.587c.14.023.269.097.361.207.093.11.144.25.144.395 0 .145-.051.284-.144.395-.092.11-.22.183-.361.207zm-3.966 0h-1.586c-.086.014-.174.01-.259-.014-.084-.024-.162-.066-.228-.123-.067-.057-.12-.129-.157-.209-.037-.08-.056-.168-.056-.256 0-.089.02-.176.056-.256.037-.08.09-.152.157-.209.066-.057.144-.1.229-.123.084-.023.172-.028.258-.014h1.586c.141.023.27.097.362.207.093.11.143.25.143.395 0 .145-.05.284-.143.395-.092.11-.22.183-.362.207zm-3.965 0h-1.586c-.086.014-.175.01-.259-.014-.084-.024-.162-.066-.229-.123-.066-.057-.12-.129-.156-.209-.037-.08-.056-.168-.056-.256 0-.089.019-.176.056-.256.036-.08.09-.152.156-.209.067-.057.145-.1.23-.123.083-.023.172-.028.258-.014h1.586c.141.023.27.097.362.207.092.11.143.25.143.395 0 .145-.05.284-.143.395-.093.11-.22.183-.362.207zm-3.965 0H15.86c-.086.014-.175.01-.259-.014-.084-.024-.162-.066-.229-.123-.066-.057-.12-.129-.157-.209-.036-.08-.055-.168-.055-.256 0-.089.019-.176.055-.256.037-.08.09-.152.157-.209.067-.057.145-.1.23-.123.083-.023.172-.028.258-.014h1.586c.141.023.27.097.362.207.092.11.143.25.143.395 0 .145-.05.284-.143.395-.093.11-.221.183-.362.207zm-3.965 0h-1.586c-.087.014-.175.01-.26-.014-.083-.024-.161-.066-.228-.123-.067-.057-.12-.129-.157-.209-.037-.08-.056-.168-.056-.256 0-.089.02-.176.056-.256.037-.08.09-.152.157-.209.067-.057.145-.1.229-.123.084-.023.172-.028.259-.014h1.586c.14.023.27.097.362.207.092.11.143.25.143.395 0 .145-.05.284-.143.395-.093.11-.221.183-.362.207zm-3.965 0H7.93c-.086.014-.174.01-.258-.014-.084-.024-.163-.066-.23-.123-.066-.057-.12-.129-.156-.209-.037-.08-.056-.168-.056-.256 0-.089.02-.176.056-.256.037-.08.09-.152.157-.209.066-.057.145-.1.229-.123.084-.023.172-.028.258-.014h1.587c.14.023.269.097.361.207.093.11.144.25.144.395 0 .145-.051.284-.144.395-.092.11-.22.183-.361.207zm-3.966 0H3.965c-.086.014-.174.01-.258-.014-.085-.024-.163-.066-.23-.123-.066-.057-.12-.129-.156-.209-.037-.08-.056-.168-.056-.256 0-.089.02-.176.056-.256.037-.08.09-.152.157-.209.066-.057.144-.1.229-.123.084-.023.172-.028.258-.014h1.586c.141.023.27.097.362.207.093.11.144.25.144.395 0 .145-.051.284-.144.395-.092.11-.22.183-.362.207zM44.41 82.88h-.793c-.086.014-.174.01-.259-.014-.084-.024-.162-.066-.228-.123-.067-.057-.12-.129-.157-.209-.037-.08-.056-.168-.056-.256 0-.089.019-.176.056-.256.036-.08.09-.152.157-.209.066-.057.144-.1.228-.123.085-.023.173-.028.26-.014h.792c.141.023.27.097.362.207.093.11.144.25.144.395 0 .145-.051.284-.144.395-.093.11-.22.183-.362.207zM142.429 82.88h-.808c-.087.014-.175.01-.259-.014-.084-.024-.162-.066-.229-.123-.067-.057-.12-.129-.157-.209-.037-.08-.056-.168-.056-.256 0-.089.019-.176.056-.256.037-.08.09-.152.157-.209.067-.057.145-.1.229-.123.084-.023.172-.028.259-.014h.793c.141.023.269.097.362.207.092.11.143.25.143.395 0 .145-.051.284-.143.395-.093.11-.221.183-.362.207h.015zM139.257 82.88h-1.586c-.086.014-.175.01-.259-.014-.084-.024-.162-.066-.229-.123-.066-.057-.12-.129-.156-.209-.037-.08-.056-.168-.056-.256 0-.089.019-.176.056-.256.036-.08.09-.152.156-.209.067-.057.145-.1.229-.123.084-.023.173-.028.259-.014h1.586c.141.023.269.097.362.207.092.11.143.25.143.395 0 .145-.051.284-.143.395-.093.11-.221.183-.362.207zm-3.965 0h-1.586c-.086.014-.175.01-.259-.014-.084-.024-.162-.066-.229-.123-.066-.057-.12-.129-.157-.209-.036-.08-.055-.168-.055-.256 0-.089.019-.176.055-.256.037-.08.091-.152.157-.209.067-.057.145-.1.229-.123.084-.023.173-.028.259-.014h1.586c.141.023.269.097.362.207.092.11.143.25.143.395 0 .145-.051.284-.143.395-.093.11-.221.183-.362.207zm-3.965 0h-1.586c-.087.014-.175.01-.259-.014-.084-.024-.162-.066-.229-.123-.067-.057-.12-.129-.157-.209-.037-.08-.056-.168-.056-.256 0-.089.019-.176.056-.256.037-.08.09-.152.157-.209.067-.057.145-.1.229-.123.084-.023.172-.028.259-.014h1.586c.141.023.269.097.362.207.092.11.143.25.143.395 0 .145-.051.284-.143.395-.093.11-.221.183-.362.207zm-3.966 0h-1.586c-.086.014-.174.01-.258-.014-.085-.024-.163-.066-.229-.123-.067-.057-.12-.129-.157-.209-.037-.08-.056-.168-.056-.256 0-.089.019-.176.056-.256.037-.08.09-.152.157-.209.066-.057.144-.1.229-.123.084-.023.172-.028.258-.014h1.586c.142.023.27.097.362.207.093.11.144.25.144.395 0 .145-.051.284-.144.395-.092.11-.22.183-.362.207zm-3.965 0h-1.586c-.086.014-.174.01-.258-.014-.085-.024-.163-.066-.229-.123-.067-.057-.121-.129-.157-.209-.037-.08-.056-.168-.056-.256 0-.089.019-.176.056-.256.036-.08.09-.152.157-.209.066-.057.144-.1.229-.123.084-.023.172-.028.258-.014h1.586c.141.023.27.097.362.207.093.11.144.25.144.395 0 .145-.051.284-.144.395-.092.11-.221.183-.362.207zm-3.965 0h-1.586c-.086.014-.174.01-.259-.014-.084-.024-.162-.066-.229-.123-.066-.057-.12-.129-.156-.209-.037-.08-.056-.168-.056-.256 0-.089.019-.176.056-.256.036-.08.09-.152.156-.209.067-.057.145-.1.229-.123.085-.023.173-.028.259-.014h1.586c.141.023.269.097.362.207.093.11.143.25.143.395 0 .145-.05.284-.143.395-.093.11-.221.183-.362.207zm-3.965 0h-1.586c-.086.014-.175.01-.259-.014-.084-.024-.162-.066-.229-.123-.066-.057-.12-.129-.157-.209-.036-.08-.055-.168-.055-.256 0-.089.019-.176.055-.256.037-.08.091-.152.157-.209.067-.057.145-.1.229-.123.084-.023.173-.028.259-.014h1.586c.141.023.269.097.362.207.092.11.143.25.143.395 0 .145-.051.284-.143.395-.093.11-.221.183-.362.207zm-3.965 0h-1.586c-.087.014-.175.01-.259-.014-.084-.024-.162-.066-.229-.123-.067-.057-.12-.129-.157-.209-.036-.08-.055-.168-.055-.256 0-.089.019-.176.055-.256.037-.08.09-.152.157-.209.067-.057.145-.1.229-.123.084-.023.172-.028.259-.014h1.586c.141.023.269.097.362.207.092.11.143.25.143.395 0 .145-.051.284-.143.395-.093.11-.221.183-.362.207zm-3.965 0h-1.586c-.087.014-.175.01-.259-.014-.084-.024-.163-.066-.229-.123-.067-.057-.12-.129-.157-.209-.037-.08-.056-.168-.056-.256 0-.089.019-.176.056-.256.037-.08.09-.152.157-.209.066-.057.145-.1.229-.123.084-.023.172-.028.259-.014h1.586c.141.023.269.097.361.207.093.11.144.25.144.395 0 .145-.051.284-.144.395-.092.11-.22.183-.361.207zm-3.966 0h-1.586c-.086.014-.174.01-.258-.014-.085-.024-.163-.066-.229-.123-.067-.057-.12-.129-.157-.209-.037-.08-.056-.168-.056-.256 0-.089.019-.176.056-.256.037-.08.09-.152.157-.209.066-.057.144-.1.229-.123.084-.023.172-.028.258-.014h1.586c.141.023.27.097.362.207.093.11.144.25.144.395 0 .145-.051.284-.144.395-.092.11-.221.183-.362.207zM99.447 82.88h-.793c-.087.014-.175.01-.259-.014-.084-.024-.162-.066-.229-.123-.066-.057-.12-.129-.157-.209-.036-.08-.055-.168-.055-.256 0-.089.019-.176.055-.256.037-.08.09-.152.157-.209.067-.057.145-.1.23-.123.083-.023.171-.028.258-.014h.793c.14.023.27.097.362.207.092.11.143.25.143.395 0 .145-.05.284-.143.395-.093.11-.221.183-.362.207z"/>
    <path fill="#FF5156" d="M51.215 84.196l-9.041 6.26-9.2 6.26-9.198 6.26c-3.014 2.087-6.186 4.174-9.2 6.1-3.845 1.892-7.088 4.84-9.358 8.508-2.228 3.683-3.484 7.883-3.648 12.199 0 .17-.066.334-.185.454-.12.12-.28.188-.449.188-.168 0-.33-.068-.449-.188s-.185-.284-.185-.454c-.291-2.302-.184-4.638.317-6.902.47-2.324 1.328-4.55 2.538-6.582 1.14-2.127 2.583-4.074 4.282-5.778 1.756-1.659 3.731-3.064 5.868-4.174l-.158.161c3.013-2.087 6.027-4.174 9.199-6.26 3.172-2.087 6.186-4.013 9.358-6.1l9.516-5.779c1.586-1.004 3.228-1.915 4.917-2.728 1.745-.803 3.172-1.766 4.917-2.73.073-.034.151-.052.231-.054.08-.002.16.012.234.042.074.03.142.075.198.132.056.058.1.126.13.202-.036.195-.111.381-.22.547-.11.165-.25.307-.414.416zM141.795 130.104c-.088-4.328-1.35-8.548-3.648-12.199-2.27-3.668-5.512-6.616-9.358-8.508-3.013-1.926-6.185-4.013-9.199-5.939l-9.199-6.1-9.199-6.1-9.041-6.26c-.317-.16-.317-.642-.159-.963.159-.32.476-.32.793-.16 1.587.803 3.331 1.766 4.917 2.568 1.586.803 3.172 1.766 4.758 2.73 3.173 1.925 6.345 3.691 9.358 5.617 3.014 1.926 6.186 3.853 9.358 5.939 3.172 2.087 6.027 4.013 9.199 6.1l-.158-.16c2.113 1.149 4.083 2.55 5.868 4.173 1.699 1.704 3.142 3.651 4.283 5.779 1.144 2.063 1.998 4.278 2.537 6.581.501 2.265.608 4.6.317 6.902-.011.167-.081.324-.198.442-.116.118-.271.189-.436.2-.634 0-.793-.321-.793-.642z"/>
    <path fill="#939598" d="M50.151 146.815c-6.252.004-12.464-1.009-18.398-3.002-.1-.037-.18-.11-.228-.206-.047-.095-.056-.205-.026-.308.036-.1.109-.183.203-.231.095-.047.204-.057.305-.026 10.382 3.461 21.514 3.906 32.134 1.285.094-.01.19.015.267.071.078.055.134.137.157.231.023.093.012.192-.03.278-.044.086-.116.153-.204.19-4.644 1.132-9.403 1.709-14.18 1.718zM93.388 146.815c-4.777-.007-9.536-.584-14.18-1.718-.05-.011-.098-.033-.14-.063-.043-.031-.078-.07-.105-.115-.027-.045-.044-.096-.051-.148-.007-.052-.003-.105.011-.156.026-.101.09-.188.18-.242.089-.054.195-.071.296-.046 10.62 2.621 21.752 2.176 32.134-1.285.101-.031.21-.021.304.026.095.048.167.131.203.231.031.103.022.213-.025.308-.048.096-.129.169-.228.206-5.934 1.993-12.147 3.006-18.399 3.002zM59.478 98.883h-.127l-14.116-4.815c-.101-.034-.185-.108-.232-.204-.048-.096-.056-.208-.022-.31.034-.102.106-.187.201-.235.095-.048.206-.056.307-.022l14.116 4.816c.099.036.18.11.228.205.047.096.056.206.025.308-.03.078-.081.144-.15.19-.068.046-.148.07-.23.067zM83.745 98.883c-.09-.005-.174-.042-.24-.102-.066-.061-.11-.143-.125-.232-.015-.09 0-.18.044-.26.043-.079.111-.141.194-.176l13.957-4.816c.099-.036.208-.03.303.014.095.045.169.127.205.227.03.102.021.213-.026.308-.047.096-.129.17-.228.206l-13.957 4.816-.127.016z"/>
</svg>
