<svg xmlns="http://www.w3.org/2000/svg" width="99" height="165" fill="none" viewBox="0 0 99 165">
    <path fill="#231F20" d="M80.98 162.825c-21.194 2.899-42.59 2.899-63.784 0l2.2-10.798c19.595 3.699 39.79 3.699 59.385 0l2.2 10.798zM62.085 80.645L35.292 56.451l6.298-13.897h-5.299c-1.5 0-2.699-1.2-2.699-2.7V28.958h-2c-.4 0-.7-.2-.9-.5-.2-.3-.3-.7-.1-1l5.8-16.695h25.693v69.883zM36.691 56.151l24.295 22.095V11.862H37.09l-5.498 15.996h1.999c.6 0 1.1.5 1.1 1.1v10.897c0 .9.7 1.6 1.6 1.6h6.998L36.69 56.15z"/>
    <path fill="#231F20" d="M35.092 12.96h19.495c1.8 0 3.3 1.5 3.3 3.3 0 .2 0 .5-.1.7l-2.2 9.198c-.8 3.599.4 7.298 3.2 9.697l2.699 2.3 6.398-22.695c1.6-4.599-.8-9.697-5.399-11.397l-1.2-.3L45.09.163c-2.899-.699-5.798.9-6.898 3.7l-3.1 9.098z"/>
    <path fill="#231F20" d="M35.492 12.96h4.799c.6 0 1.1-.499 1.1-1.099v-.2l-1.1-6.298c-.1-.4-.4-.7-.8-.9l-1.6-.6c-2.7-.9-5.698.5-6.598 3.3-.8 2.299.5 4.798 2.899 5.598.4.2.8.2 1.3.2z"/>
    <path fill="#fff" d="M.5 152.028V79.046C.4 68.547 8.198 59.75 18.596 58.45l17.096-2.1h13.396v6.1l1.6-6.1 1.6-.499 1-.3 6.398-2.2c.1 0 2.9 3.1 3 3.1l16.995 2.1C90.08 59.85 97.777 68.647 97.777 79.045v72.982"/>
    <path fill="#231F20" d="M98.277 152.027h-1.1V79.045c0-10.198-7.598-18.696-17.596-19.996l-16.996-2.1c-.3-.1-.3-.1-1.7-1.599-.5-.5-1.1-1.1-1.399-1.5l-8.398 2.8-1.5 5.798-1.1-.1V56.75H35.693l-16.996 2.1C8.598 60.148 1.1 68.646 1.1 78.844v72.982H0V78.845C0 68.147 7.998 59.149 18.596 57.75l17.096-2.1h13.996v2.3l.6-2.2 9.398-3.2c.3 0 .3 0 2 1.9.4.5 1 1 1.2 1.2l16.795 2.1c10.598 1.3 18.596 10.397 18.596 21.095v73.182z"/>
    <path fill="#fff" d="M55.387 64.05l9.398-7-2.2-4.798-11.397 3.899 4.199 7.898z"/>
    <path fill="#231F20" d="M55.087 64.948l-4.699-9.098 12.497-4.3 2.5 5.7-10.298 7.698zm-3.2-8.498l3.6 6.798 8.598-6.398-1.8-4-10.397 3.6z"/>
    <path fill="#fff" d="M44.19 64.05l-9.098-7.799 1.8-4.099 11.796 4.1c.1 0 .1.1.1.2l-4.598 7.597z"/>
    <path fill="#231F20" d="M44.39 64.948l-9.898-8.498 2.2-4.9 12.496 4.3.2.3c.1.2 0 .4-.1.6l-4.898 8.198zM35.79 56.15l8.299 7.098 3.999-6.698-10.898-3.7-1.4 3.3zM51.288 71.746c.442 0 .8-.358.8-.8 0-.441-.358-.8-.8-.8-.442 0-.8.359-.8.8 0 .442.358.8.8.8zM51.288 82.645c.442 0 .8-.358.8-.8 0-.442-.358-.8-.8-.8-.442 0-.8.358-.8.8 0 .442.358.8.8.8zM51.288 93.441c.442 0 .8-.358.8-.8 0-.441-.358-.8-.8-.8-.442 0-.8.359-.8.8 0 .442.358.8.8.8zM51.288 104.34c.442 0 .8-.358.8-.8 0-.442-.358-.8-.8-.8-.442 0-.8.358-.8.8 0 .442.358.8.8.8zM51.288 115.236c.442 0 .8-.358.8-.799 0-.442-.358-.8-.8-.8-.442 0-.8.358-.8.8 0 .441.358.799.8.799zM51.288 126.135c.442 0 .8-.358.8-.8 0-.442-.358-.8-.8-.8-.442 0-.8.358-.8.8 0 .442.358.8.8.8zM51.288 137.031c.442 0 .8-.358.8-.8 0-.441-.358-.799-.8-.799-.442 0-.8.358-.8.799 0 .442.358.8.8.8zM51.288 147.828c.442 0 .8-.358.8-.8 0-.441-.358-.799-.8-.799-.442 0-.8.358-.8.799 0 .442.358.8.8.8z"/>
    <path fill="#231F20" d="M49.688 154.427h-1.1V56.65l-3.299-1 .3-1.1 4.1 1.4v98.477z"/>
    <path fill="#424143" d="M22.695 150.529c-.2 0-.4-.2-.4-.4v-1.1c0-.2.2-.4.4-.4s.4.2.4.4v1.1c0 .2-.1.4-.4.4zm0-2.7c-.2 0-.4-.2-.4-.4v-1.1c0-.199.2-.399.4-.399s.4.2.4.399v1.1c0 .2-.2.4-.4.4zm0-2.699c-.2 0-.4-.2-.4-.4v-1.1c0-.2.2-.4.4-.4s.4.2.4.4v1.1c0 .2-.2.4-.4.4zm0-2.7c-.2 0-.4-.2-.4-.399v-1.1c0-.2.2-.4.4-.4s.4.2.4.4v1.1c0 .199-.2.399-.4.399zm-.1-2.699c-.2 0-.4-.2-.4-.4v-1.1c0-.2.2-.399.4-.399s.4.199.4.399l.1 1.1c-.1.2-.3.3-.5.4zm-.2-2.799c-.2 0-.4-.2-.4-.4l-.1-1c0-.2.2-.4.4-.4s.4.2.4.4l.1 1.1c0 .1-.1.3-.4.3zm-.2-2.7c-.2 0-.4-.2-.4-.4l-.1-1.099c0-.2.1-.4.4-.4.2 0 .4.2.4.4l.1 1.099c0 .2-.1.4-.4.4zm-.2-2.699c-.2 0-.4-.2-.4-.4l-.1-1.1c0-.2.1-.4.3-.5.2 0 .4.1.5.3v.1l.1 1.1c0 .3-.1.5-.4.5zm-.2-2.699c-.2 0-.4-.2-.4-.4l-.1-1.1c0-.2.1-.4.4-.5.2 0 .4.1.5.4l.1 1.1c-.1.3-.3.5-.5.5zm-.4-2.7c-.2 0-.4-.2-.4-.4l-.1-1.099c0-.2.1-.4.3-.4.2 0 .4.1.5.4l.1 1.099c.1.2-.1.4-.4.4.1 0 .1 0 0 0zm-.3-2.699c-.2 0-.4-.2-.4-.4l-.2-1c0-.2.1-.4.3-.5.2 0 .4.1.5.3l.1 1.1c.1.3 0 .5-.3.5zm-.4-2.699c-.2 0-.4-.2-.4-.4l-.2-1.1c0-.2.1-.4.3-.5.2 0 .4.1.5.3l.2 1.1c0 .4-.1.6-.4.6zm-.4-2.7c-.2 0-.4-.1-.4-.3l-.2-1.099c-.1-.2 0-.4.3-.5.2-.1.4 0 .5.3v.1l.2 1.099c0 .1-.1.4-.4.4.1 0 .1 0 0 0zm-.5-2.699c-.2 0-.4-.1-.4-.3l-.2-1.1c0-.2.1-.4.3-.5.2 0 .4.1.5.3l.2 1.1c.1.3-.1.5-.4.5.1 0 .1 0 0 0zm-.5-2.7c-.2 0-.4-.1-.4-.299l-.2-1.1c0-.2.1-.4.3-.5.2 0 .4.1.5.3l.2 1.1c.1.299-.1.499-.4.499zm-.5-2.599c-.2 0-.4-.1-.4-.3l-.2-1.1c0-.2.1-.4.3-.499.2 0 .4.099.5.299l.2 1.1c.1.2-.1.4-.4.5zm-.6-2.699c-.2 0-.4-.1-.4-.3l-.2-1c-.1-.2 0-.4.2-.5.2-.1.4 0 .5.2v.1l.2 1.1c.2.2 0 .4-.3.4zm-.6-2.6c-.2 0-.4-.1-.4-.3l-.299-1.099c-.1-.2.1-.4.3-.5.2-.1.4.1.5.3l.3 1.099c.1.2-.1.4-.4.5zm-.599-2.599c-.2 0-.3-.1-.4-.3l-.3-1c-.1-.2.1-.4.3-.5.2-.1.4.1.5.3l.3 1.1c.1.2-.1.4-.3.5l-.1-.1zm-.7-2.7c-.2 0-.3-.1-.4-.3l-.3-1.1c0-.2.1-.399.4-.499.2 0 .3.1.4.2l.3 1.1c.1.2-.1.4-.3.5l-.1.1zm-.8-2.599c-.2 0-.3-.1-.4-.3l-.3-1.1c0-.2.1-.4.3-.5.2 0 .4.1.4.2l.3 1c.1.2-.1.4-.3.5v.2zm-.7-2.6c-.2 0-.3-.1-.4-.3l-.3-.999c-.1-.2.1-.4.3-.5.2-.1.4 0 .5.3l.3 1c.1.2-.1.4-.3.5h-.1zm-.9-2.599c-.2 0-.3-.1-.4-.3l-.3-1c-.1-.2 0-.4.2-.5.2-.1.4 0 .5.2v.1l.3 1c.1.2 0 .4-.3.5zm-.8-2.599c-.199 0-.299-.1-.399-.3l-.2-.7c-.1-.2.1-.4.3-.5.2-.1.4 0 .5.3l.2.8c.1.2 0 .4-.3.5 0-.1 0-.1-.1-.1zM75.582 150.529c-.2 0-.4-.2-.4-.4v-.6c0-.2.2-.4.4-.4s.4.2.4.4v.6c0 .2-.2.4-.4.4zm0-2.2c-.2 0-.4-.2-.4-.4v-1.1c0-.2.2-.4.4-.4s.4.2.4.4v1.1c0 .2-.2.4-.4.4zm0-2.699c-.2 0-.4-.2-.4-.4v-1.1c0-.2.2-.4.4-.4s.4.2.4.4v1.1c0 .2-.2.4-.4.4-.1 0-.1 0 0 0zm0-2.7c-.2 0-.4-.2-.4-.4v-1.099c0-.2.2-.4.4-.4s.4.2.4.4v1.099c-.1.2-.2.4-.4.4zm0-2.799c-.2 0-.4-.2-.4-.4v-1.1c0-.2.2-.4.4-.4s.4.2.4.4v1.1c0 .3-.2.4-.4.4zm.1-2.699c-.2 0-.4-.2-.4-.4v-1.1c0-.2.2-.4.4-.4s.4.1.4.4v1.1c0 .2-.2.4-.4.4zm.1-3.1h-.4l.1-1.099c0-.2.2-.4.4-.4s.4.2.4.4l-.1.999-.4.1zm.2-2.299c-.2 0-.4-.2-.4-.4l.1-1.1c0-.2.2-.4.4-.4h.1c.2 0 .4.2.4.4l-.1 1.1c-.1.2-.3.4-.5.4zm.2-2.7c-.2 0-.4-.199-.4-.399l.1-1.1c0-.2.2-.4.4-.4s.4.2.4.4l-.1 1.1c0 .2-.2.399-.4.399zm.2-2.699c-.2 0-.4-.2-.4-.4l.1-1.1c0-.199.2-.399.4-.399s.4.2.4.399l-.1 1.1c.1.2-.1.4-.4.4zm.3-2.699c-.2 0-.4-.2-.4-.4l.1-1.1c0-.2.2-.4.4-.4s.4.2.4.4l-.1 1.1c0 .2-.1.4-.4.4zm.4-2.7c-.3 0-.4-.2-.4-.399l.2-1.1c0-.2.2-.4.4-.4s.4.2.4.5l-.2 1.099c-.1.1-.2.2-.4.3zm.3-2.699c-.2-.1-.4-.3-.3-.5l.2-1.1c0-.2.3-.399.5-.3.2 0 .3.2.3.4l-.2 1.1c0 .2-.2.4-.5.4.1 0 .1 0 0 0zm.5-2.699c-.3 0-.4-.2-.4-.5l.2-1.1c0-.2.2-.4.5-.3.2 0 .4.2.3.5l-.2 1.1c-.1.1-.2.3-.4.3zm.4-2.7c-.3 0-.4-.3-.4-.5l.2-1.099c0-.2.3-.4.5-.3.2 0 .4.3.3.5l-.2 1.099c0 .2-.2.3-.4.3zm.5-2.699c-.3 0-.4-.3-.4-.5l.2-1.1c0-.2.3-.4.5-.3.2 0 .4.2.3.5l-.2 1.1c0 .2-.2.3-.4.3zm.5-2.599c-.3 0-.4-.3-.4-.5l.2-1.1c0-.2.3-.4.5-.3.2 0 .4.3.3.5l-.2 1.1c0 .1-.2.2-.4.3zm.6-2.7c-.3 0-.4-.3-.4-.5l.2-1.099c0-.2.3-.4.5-.3.199.1.399.3.299.5l-.2 1.099c0 .2-.2.3-.4.3zm.599-2.599c-.3-.1-.4-.2-.4-.4l.3-1.1c0-.2.2-.4.4-.4s.4.2.4.4v.1l-.2 1.1c-.1.1-.3.2-.5.3zm.7-2.7c-.3-.1-.4-.3-.3-.5l.3-1.1c.1-.2.3-.3.5-.3.2.1.3.3.3.5l-.3 1c-.1.3-.3.4-.5.4zm.7-2.599h-.1c-.2-.1-.3-.3-.3-.5l.3-1c.1-.2.3-.3.5-.3.2.1.3.3.3.5l-.3 1.1c-.1.1-.3.2-.4.2zm.7-2.6h-.1c-.2-.1-.3-.3-.3-.5l.3-.999c.1-.2.3-.3.5-.3.2.1.3.3.3.5l-.3 1c-.1.1-.2.2-.4.3zm.7-2.699h-.1c-.2-.1-.3-.3-.3-.5l.3-1.1c.1-.2.3-.3.5-.3.2.1.3.3.3.5l-.3 1c-.1.3-.2.4-.4.4zm.7-2.6h-.1c-.2-.1-.3-.299-.3-.499l.3-1.1c.1-.2.3-.3.5-.3.199.1.299.3.299.5l-.2 1c-.2.3-.3.4-.5.4z"/>
    <path fill="#F05459" d="M84.68 87.943l-.9 23.895-1 23.794-.5 11.897-.2 1.5v.9c-.2 1.599-1.399 2.999-2.999 3.499-.2 0-.3.1-.5.1l-.4.1-.7.1-1.499.2c-1 .2-2 .3-3 .4-7.897 1.099-15.895 1.699-23.894 1.699-7.998 0-16.096-.6-23.994-1.799-1-.1-2-.3-3-.4l-1.499-.2-.7-.1-.4-.1c-.2 0-.3-.1-.5-.1-1.3-.4-2.299-1.3-2.799-2.6-.2-.599-.3-1.199-.3-1.799l-.1-1.5-.8-11.897-1.4-23.794-1.299-23.795c0-.2.2-.4.4-.5.2 0 .4.2.5.4l1.9 23.795 1.799 23.794.9 11.897.1 1.5c0 .4.1.8.2 1.2.3.699.9 1.299 1.7 1.399l.4.1.7.1 1.499.2c1 .2 2 .3 2.9.4 7.897 1.1 15.795 1.6 23.694 1.6 7.898 0 15.796-.5 23.694-1.6 1-.1 2-.3 2.9-.4l1.499-.2.7-.1h.4l.3-.1c.7-.2 1.2-.7 1.5-1.299.1-.2.1-.3.1-.5v-.7l.1-1.5.699-11.897 1.4-23.794 1.5-23.795c0-.2.2-.4.5-.4.2 0 .4.1.4.4z"/>
    <path fill="#231F20" d="M50.688 41.953H42.39l-3.5 7.798 12.098-6.698c.3-.2.3-.6.1-.9 0-.1-.2-.2-.4-.2z"/>
    <path fill="#231F20" d="M37.791 51.053l4.3-9.598h8.597c.5 0 1 .4 1.1.9.1.5-.1 1-.6 1.3l-13.397 7.398zm4.999-8.498l-2.7 5.998 10.598-5.898v-.1H42.79z"/>
</svg>
