<svg xmlns="http://www.w3.org/2000/svg" width="99" height="165" fill="none" viewBox="0 0 99 165">
    <path fill="#231F20" d="M79.2 162.285l-.6.1c-19.7 3.503-40 3.503-59.7-.1l3.3-10.908h53.7l3.3 10.908zM62 80.325L35.3 56.107l6.2-13.91h-5.3c-1.5 0-2.7-1.202-2.7-2.703V28.586h-2c-.3 0-.7-.2-.9-.4-.2-.3-.3-.7-.1-1l5.8-16.713h25.6v69.852h.1zM36.7 55.807l24.2 22.016v-66.25H37.1l-5.5 15.912h2c.6 0 1.1.5 1.1 1.101v10.908c0 .901.7 1.602 1.6 1.602h7l-6.6 14.71z"/>
    <path fill="#231F20" d="M50.7 41.695h-8.2L39 49.501l12-6.605c.3-.2.4-.5.2-.8-.1-.3-.3-.4-.5-.4z"/>
    <path fill="#231F20" d="M37.8 50.7l4.3-9.606h8.6c.6 0 1.1.5 1.1 1.2 0 .4-.2.801-.6 1.001l-13.4 7.406zm5-8.505l-2.7 6.004 10.6-5.904v-.1h-7.9z"/>
    <path fill="#fff" d="M.6 151.378V79.424c0-10.908 8.1-20.215 19-21.516l16.1-2.002H49v6.105l1.5-6.105 1.5-.5 1-.3 6.4-2.202c.1 0 2.9 3.103 3 3.103l16 2.001c10.9 1.401 19 10.608 19 21.516v71.954"/>
    <path fill="#231F20" d="M98.1 151.377H97V79.523c0-10.708-7.9-19.715-18.5-21.016l-16-2.001c-.2-.1-.2-.1-1.7-1.601l-1.4-1.501-8.4 2.902-1.5 5.804-1.1-.1v-5.504H35.6l-16 2.001C9 59.808 1.1 68.815 1.1 79.523v71.954H0V79.523c0-11.208 8.4-20.715 19.5-22.116l16.1-2.002h14v2.302l.5-2.202 9.4-3.202c.3 0 .3 0 2 1.901.4.5 1 1 1.2 1.201l15.8 2.002C89.6 58.807 98 68.215 98 79.423v71.954h.1zM35.1 12.773h19.5c1.8 0 3.3 1.502 3.3 3.303 0 .2 0 .5-.1.7l-2.1 9.207c-.8 3.603.4 7.306 3.2 9.708l2.7 2.301L68 15.375c1.6-4.603-.8-9.707-5.4-11.308-.4-.1-.7-.2-1.1-.3L45.4.164c-2.9-.7-5.8.9-6.8 3.703l-3.5 8.906z"/>
    <path fill="#231F20" d="M35.5 12.774h4.8c.6 0 1.1-.5 1.1-1.101v-.2l-1.1-6.305c-.1-.4-.4-.7-.8-.9l-1.6-.601c-2.7-.9-5.7.5-6.6 3.202v.1c-.7 2.302.5 4.804 2.9 5.604.4.1.8.2 1.3.2z"/>
    <path fill="#fff" d="M55.2 63.711l9.4-7.005-2.1-4.804-11.4 3.903 4.1 7.906z"/>
    <path fill="#231F20" d="M55.1 64.512l-4.7-9.107 12.4-4.303 2.5 5.704-10.2 7.706zm-3.2-8.407l3.6 6.805 8.5-6.404-1.8-4.003-10.3 3.602z"/>
    <path fill="#fff" d="M44.2 63.712l-9-7.806 1.8-4.103 11.8 4.003c.1 0 .1.1.1.2l-4.7 7.706z"/>
    <path fill="#231F20" d="M44.3 64.613l-9.8-8.506 2.2-4.904 12.5 4.303.2.3c.1.2 0 .4-.1.601l-5 8.206zm-8.5-8.806l8.3 7.105 4-6.605-10.8-3.703-1.5 3.203z"/>
    <path fill="#fff" d="M84.1 87.43l-2.5 9.507c-4.2 15.812-6.3 32.024-6.2 48.436v6.005c-17.4 3.602-35.3 3.602-52.7 0 .5-20.316-2.4-40.531-8.5-59.845l-1.3-4.103"/>
    <path fill="#F05459" d="M84.5 87.529c-1.9 7.406-3.8 14.811-5.1 22.217-1.4 7.505-2.3 15.011-2.7 22.616-.2 3.803-.3 7.606-.3 11.409v7.606c.2-.2-1.6 1.901-.8 1h-.2l-.7.101c-.9.2-1.9.4-2.8.5-7.6 1.301-15.2 2.001-22.9 2.102-7.7 0-15.3-.701-22.9-2.002l-2.8-.5-.7-.1c-1.6-2.002-.5-.601-.8-1.101v-2.102-5.704c-.1-3.803-.2-7.606-.5-11.409-.6-7.605-1.6-15.111-3-22.517-.7-3.702-1.6-7.405-2.5-11.108-.9-3.703-2-7.305-3.2-11.008-.1-.2.1-.5.3-.5.2-.1.5.1.5.3 1.2 3.603 2.4 7.205 3.5 10.908 1.1 3.703 2 7.405 2.8 11.108 1.6 7.506 2.8 15.112 3.4 22.717.3 3.803.6 7.606.6 11.509 0 1.901.1 3.803 0 5.704v2.102c-.3-.401.8 1.101-.8-1.001l.7.1 2.8.5c14.9 2.602 30.2 2.602 45.1 0 .9-.1 1.9-.3 2.8-.5l.7-.1h.2c.7-.901-1 1.201-.8 1.001v-7.606c0-3.803.2-7.706.4-11.509.5-7.605 1.6-15.211 3.1-22.717 1.5-7.505 3.7-14.81 5.7-22.216.1-.2.3-.4.5-.3.3.1.4.3.4.5z"/>
    <path fill="#231F20" d="M51.2 71.318c.442 0 .8-.358.8-.8 0-.443-.358-.801-.8-.801-.442 0-.8.358-.8.8 0 .443.358.801.8.801zM51.2 82.226c.442 0 .8-.358.8-.8 0-.443-.358-.801-.8-.801-.442 0-.8.358-.8.8 0 .443.358.801.8.801zM51.2 93.033c.442 0 .8-.359.8-.8 0-.443-.358-.801-.8-.801-.442 0-.8.358-.8.8 0 .442.358.8.8.8zM51.2 103.941c.442 0 .8-.358.8-.801 0-.442-.358-.8-.8-.8-.442 0-.8.358-.8.8 0 .443.358.801.8.801zM51.2 114.75c.442 0 .8-.359.8-.801 0-.442-.358-.801-.8-.801-.442 0-.8.359-.8.801 0 .442.358.801.8.801zM51.2 125.658c.442 0 .8-.359.8-.801 0-.442-.358-.8-.8-.8-.442 0-.8.358-.8.8 0 .442.358.801.8.801zM51.2 136.466c.442 0 .8-.358.8-.8 0-.442-.358-.801-.8-.801-.442 0-.8.359-.8.801 0 .442.358.8.8.8zM51.2 147.375c.442 0 .8-.359.8-.801 0-.442-.358-.801-.8-.801-.442 0-.8.359-.8.801 0 .442.358.801.8.801zM49.6 153.579h-1.1V56.406l-3.3-1.1.3-1.001 4.1 1.3v97.974z"/>
</svg>
