<svg width="94" height="45" viewBox="0 0 94 45" fill="none" xmlns="http://www.w3.org/2000/svg">
<path d="M17.5769 22.541C13.7764 22.541 10.3324 25.0773 10.3324 29.7806C10.3324 34.4838 13.7764 37.1261 17.5769 37.1261C21.4367 37.1261 24.8215 34.5367 24.8215 29.8335C24.8215 25.1304 21.4367 22.541 17.5769 22.541ZM14.6078 14.6671C19.5365 14.6671 23.04 16.6753 24.8215 19.2646V15.0899H34.9757V44.5771H24.8215V40.4025C22.9806 42.9918 19.4771 45 14.5484 45C6.4726 45 0 39.0814 0 29.7806C0 20.4801 6.4726 14.6671 14.6078 14.6671Z" fill="black"/>
<path d="M42.3383 5.47212H52.4925V44.5771H42.3383V5.47212Z" fill="black"/>
<path d="M59.8556 15.0897H70.0098V44.5769H59.8556V15.0897Z" fill="black"/>
<path d="M78.3827 22.5938H74.701V15.09H78.3827V14.2443C78.3827 6.52901 83.7272 2.72413 93.8219 3.19977V10.8623C89.9026 10.6509 88.5368 11.7078 88.5368 14.8257V15.09H94V22.5938H88.5368V44.5771H78.3827V22.5938Z" fill="black"/>
<path d="M56.9143 6.57353L68.652 0L71.8964 5.76221L60.1587 12.3357L56.9143 6.57353Z" fill="black"/>
</svg>
